<?xml version="1.0" encoding="utf-8"?>
<!-- Generator: Adobe Illustrator 21.0.0, SVG Export Plug-In . SVG Version: 6.00 Build 0)  -->
<svg version="1.1" id="Layer_1" xmlns="http://www.w3.org/2000/svg" xmlns:xlink="http://www.w3.org/1999/xlink" x="0px" y="0px"
	 viewBox="0 0 1400 980" enable-background="new 0 0 1400 980" xml:space="preserve">
<g>
	<g>
		<g>
			<rect id="XMLID_3_" x="0" y="0" fill="#8EA3AE" width="1400" height="980"/>
		</g>
	</g>
	<g>
		<g>
			<g>
				<rect id="XMLID_4_" x="235.6" y="9" fill="#B1C0C9" width="438.9" height="798.4"/>
			</g>
		</g>
		<g>
			<g>
				<rect id="XMLID_6_" x="725.6" y="9" fill="#B1C0C9" width="438.9" height="798.4"/>
			</g>
		</g>
	</g>
	<path fill="#E6E7E8" d="M0,0l0,980h1400V0L0,0z M28.3,88.1c0-37.8,30.6-68.4,68.4-68.4h1206.7c37.8,0,68.4,30.6,68.4,68.4v803.7
		c0,37.8-30.6,68.4-68.4,68.4H96.6c-37.8,0-68.4-30.6-68.4-68.4V88.1z"/>
	<ellipse fill="#DAD7C5" cx="731" cy="753.5" rx="8.4" ry="26.1"/>
	<g>
		<g>
			<path fill="#507282" d="M1010.2,961.8c10.4-154.7,22.4-377.5,27.6-476.7L972,434l-188,75.2l28.1,452.6H1010.2z"/>
			<g>
				<polygon fill="#DAD7C5" points="737.5,913.1 701.9,961.9 835.6,961.9 824.7,632.9 833.3,563.8 798.6,563.8 843.2,485.7 
					691.6,546.3 705.8,590.2 567.8,743.8 354.9,718.5 329.1,801.8 589.7,845.6 729.1,736 				"/>
				<polygon fill="#C6CDC7" points="828.9,759.7 735.4,697.5 758.8,672.5 827.7,723.1 825.5,655.9 746.8,576.6 758.8,621.8 
					729.1,643.4 705.8,590.2 684.1,614.4 699.3,645.5 595.3,748.1 639.6,786.2 607.1,807.4 571.9,764.8 589.5,824.9 555.3,824.9 
					555.3,764.8 443.3,729 354.9,718.5 349.9,734.5 469.6,825.5 589.7,845.6 729.1,736 735.5,871.5 833.2,890.5 				"/>
			</g>
			<g>
				<path fill="#58595B" d="M805.1,360.8c0,0,7.4,13.2,15.5,14.4l0.4-5.1C821.1,370.2,812.5,370.5,805.1,360.8z"/>
				<polygon fill="#DFB28B" points="842.4,456.8 855.4,491.2 895.8,545.3 975.8,468.6 968.1,452.3 879.2,436.8 				"/>
				<path fill="#F0D0B4" d="M973.4,375.7l-15.2,9.4l12.7-33.1l-34.5-58.9l-106.2-9.4c0,0-8.9,43.5-20.5,66.6c0,0,6.7,2.6,8.1,16.3
					s-30.5,49.6-30.5,49.6l11.3,8.1c0,0,14.2-6.8,16.5,1.5c2.3,8.3-1.6,18-1.6,18l7.1,27.8L810,489.3l42,13.3l69.1-21.3l10.3-26.8
					l4,1.5l36.9-10.1l25.1-60.1L973.4,375.7z"/>
				<g>
					<path fill="#ECC19C" d="M820.6,471.6l-1.9,3.2l37.7,6C833.5,459.7,820.6,471.6,820.6,471.6z"/>
					<path fill="#ECC19C" d="M815.1,425.8c0.5,1.8,0.7,3.7,0.7,5.5l6.1-2.9l0.4,23.7l15.4-25.8l-6.2-14.1l-32.2,11.9
						C802.2,422.8,813.1,418.7,815.1,425.8z"/>
					<path fill="#ECC19C" d="M968,391.2l-17.9,32l-8.4-19.1l31.7-28.4l-15.2,9.4l6.3-16.4c-5.5-3.5-13-6.9-20.6-5.9l-18.5-48.6
						l-49.5,82.3l28.7,31.6c-21.4,40.6-52.5,74.5-52.5,74.5l69.1-21.3l10.3-26.8l4,1.5l36.9-10.1l25.1-60.1L968,391.2z"/>
				</g>
				<path fill="#DFB28B" d="M857,377.1c-2.6-1.4-16.5-2.7-16.5-2.7l0,2.9c0,0,2.1,12.2,4.7,14.1s21.3,0.4,21.3,0.4L857,377.1z"/>
				<polygon fill="#69539C" points="850.3,383.9 875.8,396.4 853,394.7 853.8,388.5 848.4,388.8 				"/>
				<path fill="#B07E09" d="M829,306.8c0,0-39.1-31.8-27.5-51.2c11.6-19.4,26.1-21.8,26.1-21.8l-9.5,13.5l42.5-15.9
					c0,0-11.7,8.8-1.5,16.5c10.3,7.7,77.8-0.3,104.9,11c46,19.2,35.3,43.9,35.3,43.9l45.4,15.6l-34.9-0.8l24.5,34.2l-66.2,100.6
					l-32.7,3.7l6.5-14.3l21.4-4.1c0,0,52.1-54.9-9.9-34.4l-16.1,30.6c0,0-17.8-11.4-8.6-21.9l-13.8,2.6l12.5-13.5
					c0,0-17.4-6.5-16.8-22.7s10.8-41,10.8-41S920.8,283.2,829,306.8z"/>
				<path fill="#72594B" d="M817.7,434.1c0,0,26.2,14.6,43.2,13.4c0,0-14.9,9.5-42.7-5.4l2.9-3.4L817.7,434.1z"/>
				<g>
					<path fill="#855914" d="M829,306.8c70.1-18,87,9.2,91.2,23c11.4-6.3,21.9-15.7,17.1-27.5c-9.4-23-102.9-4.1-102.9-4.1
						l10.8-27.2l-19.4,23.4l-17.7-9.7C816.8,296.8,829,306.8,829,306.8z"/>
					<path fill="#855914" d="M915.6,353.8c-0.6,2-1.2,4.1-1.8,6.3c43.1,25.9,89.1,15.5,109.1,8.9l11.4-17.3
						C969.4,370,934,363,915.6,353.8z"/>
					<path fill="#855914" d="M927.5,400.8L915,414.4l13.8-2.6c-9.2,10.5,8.6,21.9,8.6,21.9l16.1-30.6c61.9-20.5,9.9,34.4,9.9,34.4
						l-27.1,5.2l-7.7,18.8l39.6-9.3l36.6-55.6c-47.4,4.9-76.5-10.8-93.2-26.4c-0.5,2.7-0.8,5.4-0.9,7.9
						C910.1,394.3,927.5,400.8,927.5,400.8z"/>
				</g>
				<path fill="#855914" d="M837.1,369.2l3.4,8.1c0,0,32.9,1.3,52.7,16.7C893.2,394,879.2,372.1,837.1,369.2z"/>
				<path fill="#9C7761" d="M815.3,420.1l10.5,0.9C825.3,414.7,815.3,420.1,815.3,420.1z"/>
			</g>
			<path fill="#335C64" d="M607.1,718.6l-15.6-4.8c-0.4-15.6-4.7-27.9-9.8-27.9c-5.4,0-9.9,13.7-9.9,30.5c0,16.9,4.4,30.5,9.9,30.5
				c4.3,0,7.9-8.3,9.3-20h14.8L607.1,718.6z"/>
			<g>
				<path fill="#5C4A56" d="M841.3,968.5h6c5.8-23.9,10.9-54,15.2-89.9c9.3-77.2,11.9-157.6,11.7-171.2
					c-0.5-39.2,15.5-105.4,15.6-106.1l-5.7-1.4c-0.7,2.7-16.3,67.6-15.8,107.5c0.2,13.5-2.5,93.5-11.7,170.4
					C852.1,917.2,846.8,946.5,841.3,968.5z"/>
				<path fill="#5C4A56" d="M759,968.5c-16.6-38.9-34.7-95.8-54-169.6l-5.7,1.5c19,72.6,36.9,128.9,53.3,168.1H759z"/>
			</g>
			<polygon fill="#ECC19C" points="758.8,792.2 748.6,766 729.8,758 690.9,718.6 595.3,716.5 595.3,729.2 601.7,734.5 600.9,746.2 
				615.1,754.4 613.7,759.7 605.9,760 605.5,768.9 662.9,795.1 677.1,811 745.7,811 			"/>
			<polygon fill="#DFB28B" points="684.5,734 684.5,753.3 670.5,753.3 670.5,768.9 654.7,768.9 652.3,782 605.5,768.9 624.7,777.6 
				662.9,795.1 677.1,811 745.7,811 758.8,792.2 748.6,766 729.8,758 690.9,718.6 			"/>
			<polygon fill="#DAD7C5" points="1151,546.3 1080.7,519.1 991.2,449.1 973.6,557 904,565.3 875.1,793.2 768.7,755.9 735.4,869.3 
				904.4,922.5 915.9,961.9 1117,961.9 1082.6,866.3 1113.5,659.7 1136.2,639.4 1130.7,608.1 			"/>
			<polygon fill="#C6CDC7" points="915.9,961.9 1069.8,961.9 1093,895.3 1082.6,866.3 1110.3,643.4 1075.7,672.5 1011.3,951.3 
				904.4,922.5 			"/>
			<polygon fill="#C6CDC7" points="933.5,561.8 957.2,643.4 913.2,654.2 935.2,759.6 890,799.6 966.9,824.8 991.4,881.9 1013.6,833 
				970.7,811 1013.6,627.1 957.2,691.3 944.5,672.5 996.6,600.6 991.2,449.1 973.6,557 			"/>
			<polygon fill="#507282" points="784,772.2 747.3,759.6 733.7,834 780.8,855.3 			"/>
			<g>
				<path fill="#5C4A56" d="M900.7,604.8c-2,0-4-0.1-6.1-0.4l-17.1-2.5c-22.7-3.3-38.4-24.5-35.2-47.2l7.1-49.6l8.1,1.2l-7.1,49.6
					c-2.6,18.2,10.1,35.2,28.3,37.9l17.1,2.5c18.2,2.7,35.2-9.9,38-28.1L958,421.1l-3.4-2.7l5.1-6.4l7.2,5.6l-25,151.9
					C938.8,590,920.9,604.8,900.7,604.8z"/>
			</g>
		</g>
		<g>
			<path fill="#C9AC68" d="M413.3,511.1c0,0,74.3-26.5,91,70.3l-46.8-59.7c0,0,47.5,80.1,24.5,113.3c-23,33.1-87.7-23.1-87.7-23.1
				L413.3,511.1z"/>
			<path fill="#B25538" d="M439.1,734.6l42.6,235.5l-170.9-1.6c0,0,10.4-256.8,26.8-259.7c16.4-2.9,39.6-0.2,39.6-0.2L439.1,734.6z"
				/>
			<ellipse fill="#ECC19C" cx="368.4" cy="799.6" rx="30.3" ry="82.3"/>
			<path fill="#F0D0B4" d="M315.3,539.1c61-32.7,116.7-19.7,116.7-19.7s34.3,16.9,42.6,59c0,0-5.1,50.2,29.7,48.2
				c0,0,0,17.3-11.6,19.9l8.9,12.4c0,0-1.1,41.2-32.9,50.4C388,732.7,362,697,362,697S207.8,596.8,315.3,539.1z"/>
			<g>
				<path fill="#ECC19C" d="M459.3,711.9l-59-36.6l3.8-7.7c0,0-24.4,1.1-20.1-4.3c4.3-5.3,10.3-6.8,10.3-6.8l-10.8-6.7l10.8-4.4
					l7.4,6.4c0,0-6.2,3.8-1.4,7.2c4.8,3.4,19.6,1.9,19.6,1.9l37.7-119.5c-0.8-1-1.6-2-2.4-3l-42-12l-75.1,79.4l9.5,80.8
					c8.6,6.5,14.4,10.3,14.4,10.3S386,729.9,459.3,711.9z"/>
				<path fill="#ECC19C" d="M496.7,681.8c4.6-11.9,4.9-22.8,4.9-22.8l-8.9-12.4c11.6-2.6,11.6-19.9,11.6-19.9l-25,12.2L496.7,681.8z
					"/>
			</g>
			<polygon fill="#7895A4" points="455,614 462.9,633.2 456.2,623.6 456.5,633.2 445.8,631.3 			"/>
			<path fill="#C9AC68" d="M458.3,589.4c0,0-13.4,4.9-25,22.9C433.3,612.3,440,585.1,458.3,589.4z"/>
			<path fill="#FEC77C" d="M445.8,501.5c0,0,24.9,53.6-10.6,93.8l-1.9-26.3c0,0-2.4,52.2-22.5,67c0,0,22,15.3,18.2,34.9
				c-3.8,19.6-12.4,19.6-12.4,19.6s6.2-42.6-10.5-46.9c0,0-39.2-13.9-25.8,20.6c13.4,34.5,29.7,17.7,29.7,17.7s-11,43.8,20.6,59.2
				c0,0-132.6,27.9-175.2-28.1c0,0,17.7-9.1,16.8-31.6s-58.9-109.3,12.6-131c0,0-17.2-26.2,23-36.6
				C326.2,509,445.8,501.5,445.8,501.5z"/>
			<path fill="#CB8C84" d="M468,654.2c0,0,24.5,41.2,27.4,0H468z"/>
			<path fill="#C9AC68" d="M447.6,506c-10.4,89.2-67.1,157.4-135.5,157.4c-17.7,0-34.6-4.6-50.1-12.9c5.1,13.5,9.8,24.7,10,31
				c1,22.5-16.8,31.6-16.8,31.6c42.6,56,175.2,28.1,175.2,28.1c-31.6-15.4-20.6-59.2-20.6-59.2s-16.3,16.8-29.7-17.7
				c-13.4-34.5,25.8-20.6,25.8-20.6c16.8,4.3,10.5,46.9,10.5,46.9s8.6,0,12.4-19.6c3.8-19.6-18.2-34.9-18.2-34.9
				c20.1-14.8,22.5-67,22.5-67l1.9,26.3C464.5,562.1,452.6,519.7,447.6,506z"/>
			<path fill="#F0D0B4" d="M323,748.1c2.8-17.5,28.2-95.6,55.2-14.5l-13.6,234.8h-53.8C310.8,968.5,314.3,802.3,323,748.1z"/>
		</g>
	</g>
</g>
</svg>
