<?xml version="1.0" encoding="utf-8"?>
<!-- Generator: Adobe Illustrator 18.0.0, SVG Export Plug-In . SVG Version: 6.00 Build 0)  -->
<!DOCTYPE svg PUBLIC "-//W3C//DTD SVG 1.1//EN" "http://www.w3.org/Graphics/SVG/1.1/DTD/svg11.dtd">
<svg version="1.1" id="Layer_1" xmlns="http://www.w3.org/2000/svg" xmlns:xlink="http://www.w3.org/1999/xlink" x="0px" y="0px"
	 width="841.9px" height="595.3px" viewBox="0 0 841.9 595.3" enable-background="new 0 0 841.9 595.3" xml:space="preserve">
<g>
	<rect x="0" fill="#E4F3FC" width="841.9" height="595.3"/>
	<polygon fill="#C3D9EB" points="0,75 136.6,72.2 141.3,270.7 192.8,272.3 205.4,128.5 306.5,123.9 308.3,57.9 393.9,52.2 
		406.5,173.4 450.4,178.9 450.4,227.3 519.7,221.2 527.9,123.9 582.1,116.4 582.1,60.8 674.5,63.6 674.5,39.3 713,39.3 713,67.9 
		732.8,66.5 743.5,204.5 780.5,200.4 780.5,72.2 841.9,65 841.9,485.9 0,485.9 	"/>
	<g>
		<polygon fill="#B9C6E6" points="122.9,145.8 115.2,427.5 720.7,427.5 726.6,342.4 660.4,335.7 658.9,235.2 524.8,218.8 
			518.2,145.8 		"/>
		<circle fill="#B9C6E6" cx="297.3" cy="427.5" r="48.5"/>
		<circle fill="#B9C6E6" cx="586.8" cy="427.5" r="48.5"/>
		<circle fill="#B9C6E6" cx="297.3" cy="427.5" r="48.5"/>
		<circle fill="#B9C6E6" cx="586.8" cy="427.5" r="48.5"/>
	</g>
	<rect x="0" y="470" fill="#71758E" width="841.9" height="125.3"/>
	<ellipse fill="#555C78" cx="420.9" cy="513.5" rx="384.6" ry="9.7"/>
	<g>
		<g>
			<g>
				<g>
					<path fill="#FDCB9A" d="M351.1,266.2c0,0,13.8-3.6,17.6-2.4c3.8,1.2,9.5-0.6,9.8,0.7c0.3,1.3-4.5,4-10.9,3
						c0,0,10.5,2.5,15.8,8.3c5.3,5.8-10-2.2-10-2.2s9.4,6.3,10.3,9.5c0.9,3.2-14-5.1-14-5.1s9.4,6.3,9,8.9
						c-0.4,2.6-13.2-6.5-13.2-6.5s7.2,6.3,6.9,8.5c-0.3,2.2-12-7.4-12-7.4s-5.1,2.2-9.9-2.5L351.1,266.2z"/>
					<polygon fill="#FDCB9A" points="351.1,266.2 337.4,264.3 335.1,276.1 350.6,279.2 					"/>
				</g>
				<path fill="#F9A86A" d="M367.6,267.6c0,0-0.9,7-8.4,11.6C359.2,279.2,368.9,278.9,367.6,267.6z"/>
			</g>
			<path fill="#E6E7E8" d="M251.5,200.4c0,0,19.1,37.7,33.6,48.4s64.5,14.8,64.5,14.8s1.9,16.8-4.8,23c0,0-48.6-6-68.9-12.9
				c-20.3-6.9-50.3-42.2-50.3-42.2S225.4,203.7,251.5,200.4z"/>
		</g>
		<g>
			<g>
				<rect x="362.7" y="257.7" fill="#A7B6BF" width="10.1" height="52.3"/>
			</g>
			<g>
				<path fill="#A7B6BF" d="M562.5,310h-10.1v-19.7c0-9.6-7.8-17.4-17.4-17.4h-93.6c-9.6,0-17.4,7.8-17.4,17.4V310h-10.1v-19.7
					c0-15.1,12.3-27.5,27.5-27.5H535c15.1,0,27.5,12.3,27.5,27.5V310z"/>
			</g>
			<path fill="#00B584" d="M310.9,298.3L310.9,298.3c0,6.5,5.2,11.7,11.7,11.7h434.1c6.5,0,11.7-5.2,11.7-11.7v0
				c0-6.5-5.2-11.7-11.7-11.7H322.6C316.1,286.6,310.9,291.9,310.9,298.3z"/>
			<g>
				<path fill="#00B584" d="M647.4,270.3c16,11.7,37.5,19,61.3,19s45.3-7.2,61.3-19c-16-11.7-37.5-19-61.3-19
					S663.4,258.5,647.4,270.3z"/>
				<g>
					<polygon fill="#E6E7E8" points="335.2,283.7 364.9,283.8 365,266.4 333.1,267.9 					"/>
					<path fill="#414042" d="M324,286.8l0-11l2.8,0l-2.8-5.5l0.1-29.5l4,0c0,0,5.2,1,7.1,7.1c2,6.1,0.9,14.4,7.1,18.4
						c0,0-0.5,4-6.1,4l2.2,15.4c0,0-2.1,2.9-5.2,3.2S324,286.8,324,286.8z"/>
				</g>
				<path fill="#AB2C23" d="M623.3,224.7c12.2-0.3,40.3,11.7,40.3,33.4c0,7.3,0,19.2-17.9,26.1c-23.6,9-119.7,1.9-119.7,1.9v-56.6
					C526.1,229.5,587.1,225.6,623.3,224.7z"/>
				<g>
					<path fill="#E6E7E8" d="M670,262.6l-3.3-13.8h-12.4C654.3,248.8,657.4,262.6,670,262.6z"/>
				</g>
				<g>
					<path fill="#FDCB9A" d="M686,251.8l-24.9,10.9c0,0-13.7-10.2-13.7-19.9c0-0.9,3.2-1.9,3.2-1.9l22.1-1.7L686,251.8z"/>
					<path fill="#F9A86A" d="M680.5,254.2c-10.2-3.3-17.9-8.6-22.4-13.9l14.6-1.1l13.3,12.6L680.5,254.2z"/>
					<path fill="#FDCB9A" d="M707.4,259.5c20.7,1.9,41.8-3.9,41.8-31.7c0-34-31.7-35-52.8-29.2c0,0-3.9-3.2-8.7-2.7
						c-4.9,0.5-31.4,8.6-31.4,22.2C656.2,231.6,673.5,256.3,707.4,259.5z"/>
					<path fill="#F9A86A" d="M692.9,223.7l1.9-11.7C694.8,212.1,684.8,216,692.9,223.7z"/>
					<path fill="#282217" d="M692.2,255.2c0,0,26.1-4.8,40.6-10.3c0,0-7.4-18.9-6.9-25.2c0.5-6.2,3.6,0,3.6,0s-4.4-17.1-4.2-24
						c0.3-6.9,3.4-2.3,3.4-2.3s-0.7-9.8,1.9-10.2c2.7-0.4,5.3,7.8,5.3,7.8s-1.7-7.7,1.8-6.9c5.1,1.1,7.3,11.7,7.3,11.7
						s-0.1-5.8,2.7-4.8c5.8,2,6.9,19,6.9,19s1.1-6,2.9-4.6c4.2,3.4,5.6,20.5,0.9,30.8c0,0,4.2-5.8,4.9-2.8
						c1.3,5.9-3.6,17.5-21.8,25.5c0,0,4.5,0.8,4.5,3.8s-8.7,0-8.7,0s-7.4,8.5-14.3,9.2c-6.9,0.7-0.9-4-0.9-4s-9.4,3.3-15.6,2
						c-6.2-1.3,0.7-2.9,0.7-2.9l-14.9-7.1L692.2,255.2z"/>
					<path fill="#282217" d="M716.3,241.9c0,0,3.6-10.3,0.9-15.8c0,0,5.6,1,4.8,6.8C721.4,237.5,716.3,241.9,716.3,241.9z"/>
					<path fill="#282217" d="M715.4,197.4c0,0,3.7,10.2,1.1,15.8c0,0,5.6-1.1,4.7-6.8C720.5,201.8,715.4,197.4,715.4,197.4z"/>
					<g>
						<path fill="#FDCB9A" d="M690.9,247.8c0,0,14.9,14.5,5.5,19.8c-9.8,5.5-23-11.3-11.7-21.1L690.9,247.8z"/>
						<path fill="#F9A86A" d="M692.2,264.7c0,0,3.6,0.6,4-3.2c0.4-3.8-8.6-10.1-8.6-10.1s-5.4,0.5-3.7,6.3c0,0,0.3-2.4,3.2-3.4
							c0,0,7.5,5,7.5,7.5C694.8,264.2,692.2,264.7,692.2,264.7z"/>
					</g>
					<path fill="#F9A86A" d="M681.2,208.7c0,0,0.1,0.3,0.2,1c0.1,0.6,0.3,1.5,0.6,2.5c0.1,0.5,0.2,1.1,0.3,1.7
						c0.1,0.6,0.2,1.2,0.3,1.8c0.2,1.3,0.4,2.6,0.4,4l0.1,1c0,0.3,0,0.7,0,1c0,0.7,0,1.3,0,2c0,0.6,0,1.3-0.1,1.9
						c0,0.6-0.1,1.2-0.1,1.7c-0.1,0.5-0.1,1-0.1,1.4c-0.1,0.4-0.1,0.8-0.2,1.1c-0.1,0.6-0.1,1-0.1,1s0.2-0.3,0.5-0.9
						c0.1-0.3,0.3-0.6,0.5-1c0.2-0.4,0.3-0.9,0.5-1.4c0.1-0.3,0.2-0.5,0.3-0.8c0.1-0.3,0.1-0.6,0.2-0.9c0.1-0.6,0.3-1.3,0.3-1.9
						c0.1-0.7,0.2-1.4,0.1-2.1c0-0.4,0-0.7,0-1.1l-0.1-1.1c0-0.7-0.2-1.4-0.3-2.1c-0.1-0.7-0.3-1.4-0.4-2c-0.4-1.3-0.8-2.5-1.2-3.5
						c-0.4-1-0.9-1.8-1.2-2.3C681.4,209,681.2,208.7,681.2,208.7z"/>
					<path fill="#282217" d="M712.4,238.3c0,0-0.1-0.2-0.2-0.4c-0.1-0.3-0.3-0.7-0.6-1.1c-0.1-0.2-0.2-0.5-0.3-0.7
						c-0.1-0.3-0.2-0.5-0.3-0.8c-0.2-0.6-0.4-1.2-0.4-1.8l-0.1-0.5c0-0.2,0-0.3,0-0.5c0-0.3,0-0.6,0-0.9c0-0.3,0-0.6,0.1-0.8
						c0-0.3,0.1-0.5,0.1-0.8c0.1-0.2,0.1-0.4,0.1-0.6c0.1-0.2,0.1-0.4,0.2-0.5c0.1-0.3,0.1-0.4,0.1-0.4s-0.2,0.1-0.5,0.4
						c-0.1,0.1-0.3,0.3-0.5,0.5c-0.2,0.2-0.3,0.4-0.5,0.6c-0.1,0.1-0.2,0.2-0.3,0.4c-0.1,0.1-0.1,0.3-0.2,0.4
						c-0.1,0.3-0.3,0.6-0.3,0.9c-0.1,0.3-0.2,0.6-0.1,0.9c0,0.2,0,0.3,0,0.5l0.1,0.5c0,0.3,0.2,0.6,0.3,1c0.1,0.3,0.3,0.6,0.4,0.9
						c0.4,0.6,0.8,1.1,1.2,1.6c0.4,0.4,0.9,0.8,1.2,1C712.2,238.1,712.4,238.3,712.4,238.3z"/>
					<path fill="#282217" d="M712.4,202.2c0,0-0.1,0.2-0.2,0.4c-0.1,0.3-0.3,0.7-0.6,1.1c-0.1,0.2-0.2,0.5-0.3,0.7
						c-0.1,0.3-0.2,0.5-0.3,0.8c-0.2,0.6-0.4,1.2-0.4,1.8l-0.1,0.5c0,0.2,0,0.3,0,0.5c0,0.3,0,0.6,0,0.9c0,0.3,0,0.6,0.1,0.8
						c0,0.3,0.1,0.5,0.1,0.8c0.1,0.2,0.1,0.4,0.1,0.6c0.1,0.2,0.1,0.4,0.2,0.5c0.1,0.3,0.1,0.4,0.1,0.4s-0.2-0.1-0.5-0.4
						c-0.1-0.1-0.3-0.3-0.5-0.5c-0.2-0.2-0.3-0.4-0.5-0.6c-0.1-0.1-0.2-0.2-0.3-0.4c-0.1-0.1-0.1-0.3-0.2-0.4
						c-0.1-0.3-0.3-0.6-0.3-0.9c-0.1-0.3-0.2-0.6-0.1-0.9c0-0.2,0-0.3,0-0.5l0.1-0.5c0-0.3,0.2-0.6,0.3-1c0.1-0.3,0.3-0.6,0.4-0.9
						c0.4-0.6,0.8-1.1,1.2-1.6c0.4-0.4,0.9-0.8,1.2-1C712.2,202.3,712.4,202.2,712.4,202.2z"/>
				</g>
				<path fill="#0A3251" d="M526.1,230.7c0,0-40.7,11.7-54.8,14c-31.8,5.2-129,9.6-129,9.6v34.5c0,0,98.2-5.2,130.8-3.1
					c13.4,0.9,53,0.4,53,0.4V230.7z"/>
				<g>
					<g>
						<path fill="#FDCB9A" d="M491.5,256.7c0,0-12-7.6-16-7.7c-4-0.1-8.9-3.5-9.6-2.3c-0.7,1.2,3,5.2,9.4,6.2c0,0-10.8-0.9-17.6,3
							c-6.9,3.9,10.2,1,10.2,1s-10.9,3.1-12.7,5.9c-1.8,2.8,14.9-0.5,14.9-0.5s-10.9,3.1-11.3,5.7c-0.4,2.6,14.6-2.1,14.6-2.1
							s-8.8,3.7-9.1,5.9c-0.4,2.2,13.7-3.3,13.7-3.3s4.2,3.6,10.1,0.7L491.5,256.7z"/>
						<polygon fill="#FDCB9A" points="491.5,256.7 505.1,259.1 503.6,271 488,269.2 						"/>
					</g>
					<path fill="#AB2C23" d="M629.2,241.6c0,0-39.1,14.9-67.2,14.9s-71.6-3.2-71.6-3.2s-6.4,8.9-3,23.6c0,0,55.3,11,80.5,11
						c32.2,0,68-6.3,68-6.3S649.2,266.7,629.2,241.6z"/>
				</g>
			</g>
			<g>
				<rect x="332.8" y="257.7" fill="#BACAD3" width="10.1" height="52.3"/>
			</g>
			<g>
				<path fill="#BACAD3" d="M737.3,333.5H310.9v-10.1h426.4c6.5,0,12.8-1.4,18.7-4.1l9.3-4.2H310.9V305h461.8c4,0,7.4,2.8,8.3,6.7
					c0.9,3.9-1.1,7.9-4.8,9.5l-16,7.3C753,331.8,745.3,333.5,737.3,333.5z"/>
			</g>
			<g>
				<rect x="332.8" y="328.4" fill="#BACAD3" width="10.1" height="159.1"/>
			</g>
			<g>
				<rect x="393.1" y="328.4" fill="#BACAD3" width="10.1" height="159.1"/>
			</g>
			<g>
				<rect x="675.3" y="328.4" fill="#BACAD3" width="10.1" height="159.1"/>
			</g>
			<g>
				<rect x="735.7" y="328.4" fill="#BACAD3" width="10.1" height="159.1"/>
			</g>
			<g>
				<path fill="#BACAD3" d="M541.7,310h-10.1v-19.7c0-9.6-7.8-17.4-17.4-17.4h-93.6c-9.6,0-17.4,7.8-17.4,17.4V310h-10.1v-19.7
					c0-15.1,12.3-27.5,27.5-27.5h93.6c15.1,0,27.5,12.3,27.5,27.5V310z"/>
			</g>
			<g>
				<g>
					<circle fill="#414042" cx="337.8" cy="497.8" r="15.7"/>
					<circle fill="#00B584" cx="337.8" cy="497.8" r="6"/>
					<path fill="#BACAD3" d="M337.8,479.5c-10.1,0-18.3,8.2-18.3,18.3h36.6C356.1,487.7,347.9,479.5,337.8,479.5z"/>
				</g>
				<g>
					<circle fill="#414042" cx="398.2" cy="497.8" r="15.7"/>
					<circle fill="#00B584" cx="398.2" cy="497.8" r="6"/>
					<path fill="#BACAD3" d="M398.2,479.5c-10.1,0-18.3,8.2-18.3,18.3h36.6C416.5,487.7,408.3,479.5,398.2,479.5z"/>
				</g>
				<g>
					<circle fill="#414042" cx="680.4" cy="497.8" r="15.7"/>
					<circle fill="#00B584" cx="680.4" cy="497.8" r="6"/>
					<path fill="#BACAD3" d="M680.4,479.5c-10.1,0-18.3,8.2-18.3,18.3h36.6C698.7,487.7,690.5,479.5,680.4,479.5z"/>
				</g>
				<g>
					<circle fill="#414042" cx="740.8" cy="497.8" r="15.7"/>
					<circle fill="#00B584" cx="740.8" cy="497.8" r="6"/>
					<path fill="#BACAD3" d="M740.8,479.5c-10.1,0-18.3,8.2-18.3,18.3h36.6C759.1,487.7,750.9,479.5,740.8,479.5z"/>
				</g>
			</g>
			<g>
				<rect x="337.8" y="448.2" fill="#BACAD3" width="60.4" height="10.1"/>
			</g>
			<g>
				<rect x="680.4" y="448.2" fill="#BACAD3" width="60.4" height="10.1"/>
			</g>
		</g>
		<g>
			<g>
				<g>
					<polygon fill="#E6E7E8" points="266.1,501.8 258.4,473.1 275.2,468.6 282,499.8 					"/>
					<path fill="#414042" d="M266,513.5l10.7-2.9l-0.7-2.7l6.1,1.3l28.5-7.6l-1-3.9c0,0-2.3-4.7-8.7-5c-6.4-0.3-14.1,2.8-19.6-2.1
						c0,0-3.8,1.5-2.3,7l-15.4,1.8c0,0-2.3,2.8-1.7,5.9C262.4,508.3,266,513.5,266,513.5z"/>
				</g>
				<g>
					<polygon fill="#E6E7E8" points="70.8,485.8 91.8,464.8 104.1,477.1 80.5,498.5 					"/>
					<path fill="#414042" d="M99.5,509.4c0,0-1.2-5.4-8.9-7.1c-0.2,0-0.4-0.1-0.5-0.2c-1.6-2.7-2.6-5.6-1.9-8.9c0,0-3.2-2.5-7.2,1.5
						l-9.3-12.4c0,0-3.5-0.6-5.9,1.4c-2.4,2-5.1,7.8-5.1,7.8l7.8,7.8l2-2l1.9,5.9l10.2,10.2h17V509.4z"/>
				</g>
				<path fill="#414042" d="M213.4,315.1c0,0-15.6,53.4-47.1,99.5s-74.9,78.3-74.9,78.3l-17.8-21.4c0,0,52.6-51.3,64.5-75.3
					c11.9-24,29.5-81.1,29.5-81.1H213.4z"/>
				<path fill="#333334" d="M190.6,372.3c15.2-31.3,22.8-57.2,22.8-57.2h-45.8c0,0-2.4,7.8-6,18.8L190.6,372.3z"/>
				<path fill="#414042" d="M167.6,311.6l68.6,3.5c0,0,34.3,111.3,45.4,172c0,0-17.1,5.4-28.5,5.4c-15.2-59.5-18.2-65.6-29.3-91.8
					c-9.8-23.1-62.3-66.7-62.3-66.7L167.6,311.6z"/>
				<path fill="#F1F2F2" d="M260.7,222c2.5-12.2-7.5-40.3-34.6-40.3c-9.2,0-24,0-35.7,17.9c-15.4,23.6-22.7,115.5-22.7,115.5
					l69.9,4.1C237.5,319.2,253.1,258.2,260.7,222z"/>
				<g>
					<path fill="#E6E7E8" d="M225,175.3l13.8,3.3V191C238.7,191,225,187.9,225,175.3z"/>
					<polygon fill="#E6E7E8" points="244.9,197.9 236.3,183.2 238.7,178.6 254.3,191.7 253.1,201.3 248.4,196.2 					"/>
				</g>
				<g>
					<path fill="#FDCB9A" d="M235.8,159.3L225,184.2c0,0,10.2,13.7,19.9,13.7c0.9,0,1.9-3.2,1.9-3.2l1.7-22.1L235.8,159.3z"/>
					<path fill="#F9A86A" d="M233.4,164.8c3.3,10.2,8.6,17.9,13.9,22.4l1.1-14.6l-12.6-13.3L233.4,164.8z"/>
					<path fill="#FDCB9A" d="M228.1,137.9c-1.9-20.7,3.9-41.8,31.7-41.8c34,0,35,31.7,29.2,52.8c0,0,3.2,3.9,2.7,8.7
						c-0.5,4.9-8.6,31.4-22.2,31.4C256,189.1,231.3,171.8,228.1,137.9z"/>
					<path fill="#C49A6C" d="M286.6,157c-2.9-4.2-20.7-2.8-28.1-2.7c-7.4,0.1-13.6,9.7-13.6,9.7c-10.8-9.9-11.4-30.6-11.4-30.6
						l-4.7,9.1c4.9,30.8,27.9,46.5,40.9,46.5c10.1,0,17.2-14.7,20.3-24.2C289.2,162.4,288.1,159.2,286.6,157z"/>
					<path fill="#F9A86A" d="M263.8,152.4l11.7-1.9C275.5,150.5,271.6,160.5,263.8,152.4z"/>
					<path fill="#282217" d="M254.3,136.8l-2.6-1.4c0.1-1.8,0.6-4.6,2.8-4.6c3.2,0,3.9,11.6,0,11.6c-2.8,0-3-2.8-2.9-4.4
						L254.3,136.8z"/>
					<path fill="#282217" d="M232.4,153.1c0,0,4.8-26.1,10.3-40.6c0,0,18.9,7.4,25.2,6.9c6.2-0.5,0-3.6,0-3.6s17.1,4.4,24,4.2
						c6.9-0.3,2.3-3.4,2.3-3.4s9.8,0.7,10.2-1.9s-7.8-5.3-7.8-5.3s7.7,1.7,6.9-1.8c-1.1-5.1-11.7-7.3-11.7-7.3s5.8,0.1,4.8-2.7
						c-2-5.8-19-6.9-19-6.9s6-1.1,4.6-2.9c-3.4-4.2-20.5-5.6-30.8-0.9c0,0,5.8-4.2,2.8-4.9c-5.9-1.3-17.5,3.6-25.5,21.8
						c0,0-0.8-4.5-3.8-4.5s0,8.7,0,8.7s-8.5,7.4-9.2,14.3c-0.7,6.9,4,0.9,4,0.9s-3.3,9.4-2,15.6c1.3,6.2,2.9-0.7,2.9-0.7l7.1,14.9
						L232.4,153.1z"/>
					<path fill="#282217" d="M245.7,125.2c0,0,10.3-3.6,15.8-0.9c0,0-1-5.6-6.8-4.8C250.1,120.2,245.7,125.2,245.7,125.2z"/>
					<path fill="#282217" d="M280.5,136.8l-2.6-1.4c0.1-1.8,0.6-4.6,2.8-4.6c3.2,0,3.9,11.6,0,11.6c-2.8,0-3-2.8-2.9-4.4
						L280.5,136.8z"/>
					<path fill="#282217" d="M290.1,126.1c0,0-10.2-3.7-15.8-1.1c0,0,1.1-5.6,6.8-4.7C285.8,121,290.1,126.1,290.1,126.1z"/>
					<g>
						<path fill="#FDCB9A" d="M239.8,154.4c0,0-14.5-14.9-19.8-5.5c-5.5,9.8,11.3,23,21.1,11.7L239.8,154.4z"/>
						<path fill="#F9A86A" d="M222.9,153.1c0,0-0.6-3.6,3.2-4c3.8-0.4,10.1,8.6,10.1,8.6s-0.5,5.4-6.3,3.7c0,0,2.4-0.3,3.4-3.2
							c0,0-5-7.5-7.5-7.5C223.4,150.5,222.9,153.1,222.9,153.1z"/>
					</g>
					<path fill="#FDCB9A" d="M256.9,160.4c0,0,0.3,0.1,1,0.2c0.6,0.1,1.5,0.3,2.5,0.6c0.5,0.1,1.1,0.2,1.7,0.3
						c0.6,0.1,1.2,0.2,1.8,0.3c1.3,0.2,2.6,0.4,4,0.4l1,0.1c0.3,0,0.7,0,1,0c0.7,0,1.3,0,2,0c0.6,0,1.3,0,1.9-0.1
						c0.6,0,1.2-0.1,1.7-0.1c0.5-0.1,1-0.1,1.4-0.1c0.4-0.1,0.8-0.1,1.1-0.2c0.6-0.1,1-0.1,1-0.1s-0.3,0.2-0.9,0.5
						c-0.3,0.1-0.6,0.3-1,0.5c-0.4,0.2-0.9,0.3-1.4,0.5c-0.3,0.1-0.5,0.2-0.8,0.3c-0.3,0.1-0.6,0.1-0.9,0.2
						c-0.6,0.1-1.3,0.3-1.9,0.3c-0.7,0.1-1.4,0.2-2.1,0.1c-0.4,0-0.7,0-1.1,0l-1.1-0.1c-0.7,0-1.4-0.2-2.1-0.3
						c-0.7-0.1-1.4-0.3-2-0.4c-1.3-0.4-2.5-0.8-3.5-1.2c-1-0.4-1.8-0.9-2.3-1.2C257.2,160.6,256.9,160.4,256.9,160.4z"/>
				</g>
				<polygon fill="#E6E7E8" points="225,175.3 243.4,192.4 244.9,197.9 241.1,197.2 236.3,206.7 218.9,181.9 				"/>
				<path fill="#E6E7E8" d="M249.3,271.7c-14.9-7.4-34.8-17.8-50.6-35.9c0,0,26.1,46.3,44.8,59.3
					C245.4,288.8,247.1,279.8,249.3,271.7z"/>
				<g>
					<g>
						<path fill="#FDCB9A" d="M319.4,284.7c0,0,14.1-2,17.8-0.4c3.6,1.6,9.5,0.5,9.7,1.9c0.1,1.3-4.9,3.5-11.2,1.8
							c0,0,10.2,3.7,14.8,10.1c4.6,6.4-9.7-3.3-9.7-3.3s8.6,7.3,9.1,10.6c0.5,3.3-13.3-6.7-13.3-6.7s8.6,7.3,7.9,9.9
							c-0.7,2.5-12.4-8-12.4-8s6.4,7,5.9,9.2c-0.6,2.1-11-8.7-11-8.7s-5.3,1.6-9.5-3.6L319.4,284.7z"/>
						<polygon fill="#FDCB9A" points="319.4,284.7 306,281.2 302.4,292.6 317.4,297.5 						"/>
					</g>
					<path fill="#F1F2F2" d="M228,207.9c0,0,14.7,39.7,27.8,52c13.1,12.3,62.4,22.1,62.4,22.1s0,17-7.4,22.3c0,0-47.6-11.5-67-20.7
						c-19.4-9.1-45.1-47.7-45.1-47.7S201.7,208.2,228,207.9z"/>
				</g>
				<path fill="#696A6D" d="M167.6,311.6l-1.7,8.9c0,0,32.7,7.4,73.4,4.6l-0.8-10C238.6,315.1,209,316.8,167.6,311.6z"/>
			</g>
			<path fill="#414042" d="M218.1,228.2c-2.3,1.4-6.2,4.5-6.8,8.6c0,0,6.6,11.1,17.2,8.7c7.2-8,0.5-19.2,0.5-19.2
				C224.4,225.1,220.3,226.8,218.1,228.2z"/>
		</g>
	</g>
</g>
</svg>
